PathFileType	4	(X/Y/Z)	/Users/niels/Desktop/University/Third Semester/Perception and Action/Exam/Gymnastics Motion Tracking/Code for Gym Tracking/Analyzed Data/Webcam_Backflip/id4_3_baseline_Sports2D/id4_3_baseline_Sports2D_px_person00.trc
DataRate	CameraRate	NumFrames	NumMarkers	Units	OrigDataRate	OrigDataStartFrame	OrigNumFrames
29.8125	29.8125	7	22	m	29.8125	60	160
Frame#	Time	Hip			RHip			RKnee			RAnkle			RBigToe			RSmallToe			RHeel			LHip			LKnee			LAnkle			LBigToe			LSmallToe			LHeel			Neck			Head			Nose			RShoulder			RElbow			RWrist			LShoulder			LElbow			LWrist		
		X1	Y1	Z1	X2	Y2	Z2	X3	Y3	Z3	X4	Y4	Z4	X5	Y5	Z5	X6	Y6	Z6	X7	Y7	Z7	X8	Y8	Z8	X9	Y9	Z9	X10	Y10	Z10	X11	Y11	Z11	X12	Y12	Z12	X13	Y13	Z13	X14	Y14	Z14	X15	Y15	Z15	X16	Y16	Z16	X17	Y17	Z17	X18	Y18	Z18	X19	Y19	Z19	X20	Y20	Z20	X21	Y21	Z21	X22	Y22	Z22
60	2.012578616352201	0.8787184283880063	-0.4082827678027363	0.0	0.8723158781251212	-0.40379330015264664	0.0	0.90276290815295	-0.5135287338137385	0.0	0.8978863879090442	-0.6239687212948426	0.0	0.9311565329521513	-0.6608095840750098	0.0	0.9199375739760945	-0.6622606522955661	0.0	0.8876144854855532	-0.6387281508752737	0.0	0.8808594719221923	-0.4064113421773706	0.0	0.8562318899899132	-0.515150468140586	0.0	0.8118555816355946	-0.6070885242178572	0.0	0.8150134510252172	-0.6565532743530851	0.0	0.8149006209365492	-0.6492217530002401	0.0	0.7998138430225769	-0.6154031360386126	0.0	0.9225309698945106	-0.2690090665583569	0.0	0.956684267833899	-0.20478285678595926	0.0	0.9526808546315095	-0.23821880167358728	0.0	0.9014448301088479	-0.2747534514383686	0.0	0.9451792199599789	-0.23285380803750452	0.0	0.9866673378825376	-0.19624241281015667	0.0	0.9432201884682636	-0.27787561643570197	0.0	0.9969635482047684	-0.2534743399584299	0.0	1.054043916644517	-0.21933067681656623	0.0
61	2.0461215932914043	0.8766007052199616	-0.4213415593520321	0.0	0.871316517809376	-0.4168086667003272	0.0	0.899918537013628	-0.5270964303637288	0.0	0.9005740579363055	-0.6382355286340312	0.0	0.9353593048503885	-0.6738266562059613	0.0	0.9244933382161229	-0.6757430674896119	0.0	0.8914105919527868	-0.6534797427074054	0.0	0.876753366680261	-0.41890839123802753	0.0	0.8475229039250587	-0.5263766104342389	0.0	0.8011991066755106	-0.6153353136648245	0.0	0.8040789565325848	-0.6649852569674946	0.0	0.8042122678261878	-0.6588088640335351	0.0	0.7887945256841096	-0.622991838265251	0.0	0.9214832185258627	-0.2810079932301117	0.0	0.9544348283955959	-0.21554354649583488	0.0	0.9510135848678763	-0.249523749411381	0.0	0.9009513740390857	-0.2879219895945903	0.0	0.9439205869661392	-0.24867966412359313	0.0	0.9852841896858082	-0.21387832201369208	0.0	0.9400083663417012	-0.28998090958265643	0.0	0.9920042561072386	-0.2664515176091478	0.0	1.042306309265174	-0.23387606423860566	0.0
62	2.079664570230608	0.873958845558824	-0.43814959940116793	0.0	0.870263281675389	-0.4337768976810407	0.0	0.897185199911517	-0.5446795274171391	0.0	0.9019371216994545	-0.6560869586693986	0.0	0.9361238272102198	-0.6894448061108256	0.0	0.9260386961642582	-0.6918899313791286	0.0	0.8939124360430736	-0.6719849541906723	0.0	0.871845234154564	-0.43492286237460664	0.0	0.839378974553412	-0.5408357680169998	0.0	0.7917690420148917	-0.6273335298999538	0.0	0.7962949826588288	-0.6760029157116283	0.0	0.7960557361923801	-0.6707727992973468	0.0	0.7791580777225312	-0.6348290507657647	0.0	0.9204055183451003	-0.2969116260878525	0.0	0.9535439330701789	-0.2311400458720026	0.0	0.9498712233184264	-0.26586247446486316	0.0	0.9009996121019122	-0.3051393715023678	0.0	0.9432006318577832	-0.2686048152134832	0.0	0.9836527394429925	-0.23588416183750158	0.0	0.9353100793727662	-0.3060325109490782	0.0	0.9839618740554789	-0.2827194913302134	0.0	1.0253891580697907	-0.25105002161626966	0.0
63	2.113207547169811	0.8708291561224627	-0.45866834129593514	0.0	0.868989845911865	-0.45463883008024203	0.0	0.8949281625996148	-0.5661346749098246	0.0	0.9014186147146063	-0.6773796573889282	0.0	0.9332154823884983	-0.7075372769965149	0.0	0.9241789092237916	-0.7105867004606671	0.0	0.8944217765596584	-0.6939788651999991	0.0	0.8665411321022796	-0.4546097658397895	0.0	0.8321602505306832	-0.5586937437544098	0.0	0.7834451331645905	-0.6433190266621654	0.0	0.7911410937846018	-0.6900435913576687	0.0	0.7900219641324724	-0.6853719602846676	0.0	0.7708365825559574	-0.6510955391409058	0.0	0.9192573992455733	-0.31694653383639504	0.0	0.953378726799373	-0.2517454940419551	0.0	0.9489369478908002	-0.28727668482263347	0.0	0.9012260948042549	-0.32630179581422514	0.0	0.9422838630254255	-0.29282929119373846	0.0	0.9817904203538013	-0.2620911467890953	0.0	0.9298810584685739	-0.3262936577665927	0.0	0.9737128832590088	-0.3036328090163327	0.0	1.0060844782253355	-0.2718972319074856	0.0
64	2.1467505241090143	0.8674033314889202	-0.4826714930333594	0.0	0.8673876184895655	-0.47914689379191905	0.0	0.8934539779278851	-0.5910165974245327	0.0	0.8989173771897024	-0.7016562783605205	0.0	0.9274918020221377	-0.7279672463631583	0.0	0.919553997387317	-0.7316569033106718	0.0	0.8926571414450842	-0.7187657618751722	0.0	0.8613531009953271	-0.47794220678056487	0.0	0.8261769212269154	-0.5800136315196253	0.0	0.7761759117341195	-0.6631824262386661	0.0	0.7876401298971598	-0.7074398134329078	0.0	0.7854275738939979	-0.7029008920318425	0.0	0.7637682716860444	-0.6715371941459246	0.0	0.9180191279263485	-0.3411050220289049	0.0	0.9529722463409097	-0.2769326467393516	0.0	0.9478734274335266	-0.3131808126104823	0.0	0.9012119976714189	-0.35114074004394374	0.0	0.9400237040890984	-0.3219273133922532	0.0	0.9795191257623335	-0.2926580369517573	0.0	0.92479438319971	-0.3507435324186124	0.0	0.9632377030074738	-0.33080683643200137	0.0	0.9887478632898397	-0.29864885528654633	0.0
65	2.180293501048218	0.8639937048886759	-0.5096187321346876	0.0	0.8653911587048266	-0.5066791368816584	0.0	0.8929438536300778	-0.6184566089744056	0.0	0.8949254609341779	-0.7279010659570649	0.0	0.9205240121827862	-0.7501731557276755	0.0	0.9135316501376345	-0.7544398267104832	0.0	0.8889943274142533	-0.7450383205269181	0.0	0.8568295016681565	-0.5045270335318377	0.0	0.8216734764914883	-0.6045382982621424	0.0	0.7699381370118866	-0.6862759125136777	0.0	0.7847578828910964	-0.727967987131102	0.0	0.7816134800391102	-0.7232551335560857	0.0	0.7578369123876046	-0.6953305883523355	0.0	0.9166867091773616	-0.3688191392186191	0.0	0.9515744848178977	-0.3056820486190308	0.0	0.9465316146600138	-0.34242553208239535	0.0	0.9006061491627014	-0.3790654604820605	0.0	0.9357717207718116	-0.35628633838419493	0.0	0.9766115390008031	-0.3277718832600481	0.0	0.9209477241991347	-0.37886917788337143	0.0	0.9549453210379075	-0.3651332349501348	0.0	0.9768963253631635	-0.33362261318016634	0.0
66	2.213836477987421	0.8609011467683149	-0.5384479725490225	0.0	0.8629878770957186	-0.5360522238760951	0.0	0.8934820928583973	-0.6470639367500088	0.0	0.8903578438215709	-0.7545295165337357	0.0	0.9138248753559015	-0.7729101504856583	0.0	0.9075099600854356	-0.7776091720607721	0.0	0.8843321192948795	-0.7710346290473751	0.0	0.853431777869558	-0.5334134077927725	0.0	0.8188195462042849	-0.631436763109427	0.0	0.7646542194278368	-0.7112882261780724	0.0	0.7817553576595269	-0.7505876978336247	0.0	0.7780737129228233	-0.7455874351067558	0.0	0.7527985902603586	-0.7209797972446749	0.0	0.9153173756690536	-0.3987426677901556	0.0	0.9489861608291837	-0.3364275782394547	0.0	0.9451142929107066	-0.3733406684344442	0.0	0.8992555796545076	-0.4089309186173542	0.0	0.9297584859246368	-0.39547987219809055	0.0	0.9730094001661622	-0.3671733147170866	0.0	0.918761073581129	-0.4095304933567675	0.0	0.950249064224485	-0.406117459427963	0.0	0.9714348970108542	-0.37821458632903493	0.0
